<svg xmlns="http://www.w3.org/2000/svg" width="762.26" height="256.883" viewBox="0 0 762.26 256.883"><defs><style>.a{opacity:0.05;}.b,.c{fill:#fff;}.b{font-size:182px;font-family:adineuePROCyr-BoldWeb, adineue PRO Cyr;font-weight:700;}</style></defs><g class="a"><text class="b" transform="translate(343.26 180.363)"><tspan x="0" y="0">2ab2</tspan></text><path class="c" d="M184.164,27.293,195,46.083H88.707l42.379,73.375H268.923L253.15,92.165H146.859l-10.835-18.79H242.316L226.543,46.083h0L200.485,1.1,199.936,0H62.1L77.872,27.293Z" transform="translate(23.07)"/><path class="c" d="M162.131,100.537H130.449l-33.6,58.152h0L81.075,185.982h0L61.6,219.584H93.145l19.475-33.6H187.5l-19.475,33.6h31.545L268.286,100.4H162.131Zm41.145,58.152H128.529l17.83-30.859h74.747Z" transform="translate(22.885 37.299)"/><path class="c" d="M98.063,173.935l12.755-.686,27.43-47.454L122.2,98.365h0L84.759,33.356h0L69.124,6.2,0,126.207l15.361,26.744h0l37.716,65.284,15.772,27.293,30.859-53.489ZM68.849,191.079l-37.3-65.009,10.7-18.652,37.442,64.872ZM58.015,80.124l11.109-19.2,37.442,64.735L95.32,145.133Z" transform="translate(0 2.303)"/></g></svg>