<svg xmlns="http://www.w3.org/2000/svg" width="125.68" height="130" viewBox="0 0 125.68 130"><defs><style>.a{fill:#732de2;}.b{fill:#4c1ea5;}.c{fill:#f4b34a;}.d{fill:#fcc05e;}.e{fill:#6c253d;}.f{fill:#e049e8;}</style></defs><g transform="translate(-2.997 -2.003)"><path class="a" d="M115.676,58.333A56.342,56.342,0,1,0,13.383,90.9a63.432,63.432,0,0,1,11.289,36.77V132H78.841V116.836h28.168V88.668h21.668Z" transform="translate(0 0)"/><path class="b" d="M34,55h8.667v4.334H34Z" transform="translate(36.174 61.836)"/><path class="c" d="M73.838,54.809,50,79.337,28.942,57.669l-7.324-7.54-4.745-4.875A20.811,20.811,0,0,1,11.673,36a21.112,21.112,0,0,1,5.2-19.956,19.708,19.708,0,0,1,28.406,0L50,20.921l4.724-4.875a19.738,19.738,0,0,1,28.406,0,21.111,21.111,0,0,1,0,29.208l-4.745,4.875Z" transform="translate(9.336 9.331)"/><path class="d" d="M17.645,39.9a16.372,16.372,0,0,1-4.113-7.324,16.827,16.827,0,0,1,4.115-15.841,15.373,15.373,0,0,1,22.192,0l7.831,8.08,7.837-8.086A15.322,15.322,0,0,1,66.54,12.011l.492.009a15.356,15.356,0,0,1,10.661,4.713,16.759,16.759,0,0,1,0,23.169L47.67,70.785Z" transform="translate(11.67 11.664)"/><g transform="translate(20.594 19.343)"><path class="e" d="M37,10.073V20.827h4.334V10.205A18.93,18.93,0,0,0,37,10.073Z" transform="translate(19.081 -10.006)"/><path class="e" d="M29,26.334H50.668v16.7l2.167-2.23L55,38.578V22H29Z" transform="translate(9.746 3.988)"/><path class="e" d="M20.413,33.167l2.106,2.167H37.14V31H18.309Z" transform="translate(-2.728 14.489)"/><path class="e" d="M32.53,18H28.2v6.5H11.118a21,21,0,0,0,.416,2.167,21.462,21.462,0,0,0,.713,2.167H32.53Z" transform="translate(-11.118 -0.679)"/></g><path class="f" d="M23.5,26A6.5,6.5,0,1,1,30,19.5,6.508,6.508,0,0,1,23.5,26Z" transform="translate(16.339 12.831)"/><path class="f" d="M32.5,42A6.5,6.5,0,1,1,39,35.5,6.508,6.508,0,0,1,32.5,42Z" transform="translate(26.84 31.499)"/><path class="f" d="M41.5,27A6.5,6.5,0,1,1,48,20.5,6.508,6.508,0,0,1,41.5,27Z" transform="translate(37.341 13.998)"/><path class="f" d="M30.5,33A6.5,6.5,0,1,1,37,26.5,6.508,6.508,0,0,1,30.5,33Z" transform="translate(24.506 20.998)"/><path class="e" d="M35,26h4.334v4.334H35Z" transform="translate(37.341 27.999)"/><path class="e" d="M19,26h4.334v4.334H19Z" transform="translate(18.672 27.999)"/><path class="e" d="M31,17h4.334v4.334H31Z" transform="translate(32.673 17.498)"/><path class="e" d="M42,19h4.334v4.334H42Z" transform="translate(45.508 19.832)"/></g></svg>