<svg xmlns="http://www.w3.org/2000/svg" width="137.643" height="137.643" viewBox="0 0 137.643 137.643"><defs><style>.a{fill:#f4b34a;}.b{fill:#dbc6a9;}.c{fill:#b79c83;}.d{fill:#e8dac5;}.e{fill:#732de2;}.f{fill:#e58842;}.g{fill:#d6713a;}.h{fill:#4c1ea5;}.i{fill:#6c253d;}</style></defs><g transform="translate(-2 -2)"><path class="a" d="M64.058,26A16.058,16.058,0,0,0,48,42.058v6.882H80.117V42.058A16.058,16.058,0,0,0,64.058,26Z" transform="translate(59.526 31.057)"/><path class="b" d="M72.469,4V61.351H22V52.175H63.293V4Z" transform="translate(25.881 2.588)"/><path class="c" d="M63.293,52.175V4h4.588V56.763H22V52.175Z" transform="translate(25.881 2.588)"/><path class="d" d="M65.881,6.588V54.763H20v-39L33.764,2H65.881Z" transform="translate(23.293)"/><path class="e" d="M45.352,56l4.588,11.47H27L31.588,56H45.352Z" transform="translate(32.351 69.879)"/><path class="b" d="M33.764,2V15.764H20Z" transform="translate(23.293)"/><path class="e" d="M18.058,26A16.058,16.058,0,0,0,2,42.058v6.882H34.117V42.058A16.058,16.058,0,0,0,18.058,26Z" transform="translate(0 31.057)"/><circle class="e" cx="9.5" cy="9.5" r="9.5" transform="translate(8.643 38)"/><path class="f" d="M77.645,80.587H22.588A4.587,4.587,0,0,1,18,76V41.588A4.587,4.587,0,0,1,22.588,37H77.645a4.587,4.587,0,0,1,4.588,4.588V76A4.587,4.587,0,0,1,77.645,80.587Z" transform="translate(20.705 45.292)"/><path class="g" d="M77.645,61.176H22.588A4.587,4.587,0,0,1,18,56.588V52H82.233v4.588A4.587,4.587,0,0,1,77.645,61.176Z" transform="translate(20.705 64.703)"/><circle class="a" cx="9.5" cy="9.5" r="9.5" transform="translate(113.643 38)"/><path class="h" d="M28.2,60.588H45.635L43.8,56H30.035Z" transform="translate(33.904 69.879)"/><path class="f" d="M64.176,27.176A9.177,9.177,0,0,0,55,18V36.352A9.177,9.177,0,0,0,64.176,27.176Z" transform="translate(68.585 20.705)"/><path class="f" d="M71.058,48.941V42.058A16.058,16.058,0,0,0,55,26V48.941Z" transform="translate(68.585 31.057)"/><path class="h" d="M18.176,27.176A9.177,9.177,0,0,0,9,18V36.352A9.177,9.177,0,0,0,18.176,27.176Z" transform="translate(9.058 20.705)"/><path class="h" d="M25.058,48.941V42.058A16.058,16.058,0,0,0,9,26V48.941Z" transform="translate(9.058 31.057)"/><g transform="translate(9.554 13.47)"><path class="i" d="M23,11H55.117v4.588H23Z" transform="translate(17.621 -1.824)"/><path class="i" d="M23,15H55.117v4.588H23Z" transform="translate(17.621 3.352)"/><path class="i" d="M23,19H55.117v4.588H23Z" transform="translate(17.621 8.529)"/><path class="i" d="M29,7H47.352v4.588H29Z" transform="translate(25.385 -7)"/><path class="i" d="M23,60H64.293v4.588H23Z" transform="translate(17.621 61.585)"/><path class="i" d="M54,14h4.588v4.588H54Z" transform="translate(57.736 2.058)"/><path class="i" d="M54,10h4.588v4.588H54Z" transform="translate(57.736 -3.118)"/><path class="i" d="M50,10h4.588v4.588H50Z" transform="translate(52.56 -3.118)"/><path class="i" d="M46,10h4.588v4.588H46Z" transform="translate(47.384 -3.118)"/><path class="i" d="M8,14h4.588v4.588H8Z" transform="translate(-1.79 2.058)"/><path class="i" d="M8,10h4.588v4.588H8Z" transform="translate(-1.79 -3.118)"/><path class="i" d="M12,10h4.588v4.588H12Z" transform="translate(3.386 -3.118)"/><path class="i" d="M16,10h4.588v4.588H16Z" transform="translate(8.562 -3.118)"/><path class="i" d="M74.392,45.09l-8.5-8.5-8.5,8.5,3.244,3.244,2.966-2.966V69.652H55.368l2.966-2.966L55.09,63.442l-8.5,8.5,8.5,8.5,3.244-3.244-2.966-2.966H68.182V45.368l2.966,2.966Z" transform="translate(48.142 31.286)"/><path class="i" d="M24.6,63.442l-3.244,3.244,2.966,2.966H16.091V45.368l2.966,2.966L22.3,45.09l-8.5-8.5-8.5,8.5,3.244,3.244L11.5,45.368V74.241H24.318l-2.966,2.966L24.6,80.451l8.5-8.5Z" transform="translate(-5.293 31.286)"/><path class="i" d="M35.882,50.47a2.294,2.294,0,1,1,2.294-2.294h4.588a6.873,6.873,0,0,0-4.588-6.46V39H33.588v2.716a6.865,6.865,0,0,0,2.294,13.342,2.294,2.294,0,1,1-2.294,2.294H29a6.873,6.873,0,0,0,4.588,6.46v2.716h4.588V63.812A6.865,6.865,0,0,0,35.882,50.47Z" transform="translate(25.385 34.41)"/><path class="i" d="M41,51H52.47v4.588H41Z" transform="translate(40.914 49.938)"/><path class="i" d="M37,51h4.588v4.588H37Z" transform="translate(35.737 49.938)"/></g></g></svg>