<svg xmlns="http://www.w3.org/2000/svg" width="137" height="137.643" viewBox="0 0 137 137.643"><defs><style>.a{fill:#e58842;}.b{fill:#732de2;}.c{fill:#f4b34a;}.d{fill:#4c1ea5;}.e{fill:#3c1991;}</style></defs><g transform="translate(-2.278 -2.277)"><g transform="translate(33.903 96.131)"><path class="a" d="M31,47h4.609V72.352H31Z" transform="translate(3.571 -37.781)"/><path class="a" d="M47.524,73.657H42.914V70L36,63.087V46h4.609V61.179l6.914,6.914Z" transform="translate(10.094 -39.086)"/><path class="a" d="M57.133,77.571H52.524V73.915L41,62.392V43h4.609V60.484L57.133,72.007Z" transform="translate(16.618 -43)"/><path class="a" d="M27.609,73.657H23V68.093l6.914-6.914V46h4.609V63.087L27.609,70Z" transform="translate(-6.867 -39.086)"/><path class="a" d="M20.609,77.571H16V72.007L27.524,60.484V43h4.609V62.392L20.609,73.915Z" transform="translate(-16 -43)"/><path class="a" d="M46,60h4.609v4.609H46Z" transform="translate(23.141 -20.82)"/><path class="a" d="M39,60h4.609v4.609H39Z" transform="translate(14.008 -20.82)"/><path class="a" d="M16,60h4.609v4.609H16Z" transform="translate(-16 -20.82)"/><path class="a" d="M23,60h4.609v4.609H23Z" transform="translate(-6.867 -20.82)"/><path class="a" d="M31,60h4.609v4.609H31Z" transform="translate(3.571 -20.82)"/></g><circle class="b" cx="36.875" cy="36.875" r="36.875" transform="translate(33.903 33.904)"/><path class="c" d="M41.5,17.459a6.919,6.919,0,0,0-9.777,0L28.465,14.2a11.536,11.536,0,0,1,16.294,0Z" transform="translate(34.166 11.16)"/><path class="c" d="M52.854,16.157a17.185,17.185,0,0,0-24.276,0L25.32,12.9a21.8,21.8,0,0,1,30.793,0Z" transform="translate(30.063 5.548)"/><path class="c" d="M63.778,14.791a27.064,27.064,0,0,0-38.226,0l-3.259-3.259a31.668,31.668,0,0,1,44.744,0Z" transform="translate(26.113 0)"/><path class="c" d="M14.2,44.759a11.536,11.536,0,0,1,0-16.294l3.259,3.259a6.919,6.919,0,0,0,0,9.777Z" transform="translate(11.159 34.167)"/><path class="c" d="M12.9,56.113a21.8,21.8,0,0,1,0-30.793l3.259,3.259a17.185,17.185,0,0,0,0,24.276Z" transform="translate(5.547 30.064)"/><path class="c" d="M11.531,67.037a31.672,31.672,0,0,1,0-44.744l3.259,3.259a27.064,27.064,0,0,0,0,38.226Z" transform="translate(0 26.114)"/><path class="c" d="M53.552,44.759,50.293,41.5a6.919,6.919,0,0,0,0-9.777l3.259-3.259A11.536,11.536,0,0,1,53.552,44.759Z" transform="translate(62.645 34.167)"/><path class="c" d="M56.552,56.113l-3.259-3.259a17.185,17.185,0,0,0,0-24.276l3.259-3.259A21.8,21.8,0,0,1,56.552,56.113Z" transform="translate(66.559 30.064)"/><path class="c" d="M59.552,67.037l-3.259-3.259a27.064,27.064,0,0,0,0-38.226l3.259-3.259A31.672,31.672,0,0,1,59.552,67.037Z" transform="translate(70.474 26.114)"/><path class="d" d="M68.319,36.812a59.858,59.858,0,0,0,13.976-5.566l.283-.157a37.2,37.2,0,0,0-3.019-3.618A55.421,55.421,0,0,1,66.568,32.5a71.067,71.067,0,0,0-10.445-16.34C55.049,16.069,53.97,16,52.875,16s-2.173.069-3.245.164A71.067,71.067,0,0,0,39.185,32.5a55.42,55.42,0,0,1-12.992-5.033,36.875,36.875,0,0,0-3.019,3.618l.283.157a59.959,59.959,0,0,0,13.976,5.566,48.279,48.279,0,0,0-2.888,13.759H16.115c-.046.765-.115,1.526-.115,2.3s.069,1.54.115,2.3H34.544a48.279,48.279,0,0,0,2.888,13.759A59.85,59.85,0,0,0,23.456,74.5l-.283.157a37.2,37.2,0,0,0,3.019,3.618,55.42,55.42,0,0,1,12.992-5.033,71.067,71.067,0,0,0,10.445,16.34c1.074.1,2.153.166,3.247.166s2.173-.069,3.245-.164a71.068,71.068,0,0,0,10.445-16.34A55.421,55.421,0,0,1,79.557,78.28a36.877,36.877,0,0,0,3.019-3.618l-.283-.157a59.851,59.851,0,0,0-13.976-5.564A48.3,48.3,0,0,0,71.2,55.182H89.633c.048-.767.118-1.528.118-2.307s-.069-1.54-.115-2.3H71.207A48.278,48.278,0,0,0,68.319,36.812ZM52.875,19.476a68.446,68.446,0,0,1,9,13.967,56.888,56.888,0,0,1-18.011,0A68.532,68.532,0,0,1,52.875,19.476Zm0,66.8a68.445,68.445,0,0,1-9-13.967,56.888,56.888,0,0,1,18.011,0A68.533,68.533,0,0,1,52.875,86.275ZM63.749,67.944a61.666,61.666,0,0,0-21.747,0A43.992,43.992,0,0,1,39.137,55.18H66.614A43.992,43.992,0,0,1,63.749,67.944ZM39.137,50.571A43.977,43.977,0,0,1,42,37.809a61.508,61.508,0,0,0,10.874.982,61.507,61.507,0,0,0,10.874-.982,43.977,43.977,0,0,1,2.865,12.761Z" transform="translate(17.903 17.904)"/><path class="d" d="M68.875,52.875A36.874,36.874,0,0,0,32,16V89.751A36.874,36.874,0,0,0,68.875,52.875Z" transform="translate(38.778 17.904)"/><path class="e" d="M45.692,73.247A55.42,55.42,0,0,1,58.684,78.28l0,0a37.451,37.451,0,0,0,3.019-3.616l-.283-.157a59.851,59.851,0,0,0-13.976-5.564,48.3,48.3,0,0,0,2.888-13.759H68.762c.044-.767.113-1.528.113-2.307s-.069-1.54-.115-2.3H50.332a48.279,48.279,0,0,0-2.888-13.759A59.858,59.858,0,0,0,61.42,31.246l.283-.157a36.9,36.9,0,0,0-3.019-3.616l0,0A55.421,55.421,0,0,1,45.69,32.5a71.067,71.067,0,0,0-10.445-16.34C34.173,16.069,33.095,16,32,16v3.476a68.446,68.446,0,0,1,9,13.967,56.974,56.974,0,0,1-9,.717v4.632a61.507,61.507,0,0,0,10.874-.982,43.977,43.977,0,0,1,2.865,12.761H32V55.18H45.738a43.992,43.992,0,0,1-2.865,12.763A61.49,61.49,0,0,0,32,66.978v4.616a56.974,56.974,0,0,1,9,.717,68.678,68.678,0,0,1-9,13.967v3.473c1.095,0,2.173-.069,3.245-.164a70.979,70.979,0,0,0,10.447-16.34Z" transform="translate(38.778 17.904)"/></g></svg>