<svg xmlns="http://www.w3.org/2000/svg" xmlns:xlink="http://www.w3.org/1999/xlink" width="146.254" height="20.884" viewBox="0 0 146.254 20.884"><defs><style>.a{fill:url(#a);}.b,.c{fill-rule:evenodd;}.b{fill:url(#b);}.c{fill:url(#c);}.d{fill:url(#d);}.e{fill:#fff;}</style><linearGradient id="a" x1="0.677" y1="1.162" x2="0.359" y2="0.316" gradientUnits="objectBoundingBox"><stop offset="0" stop-color="#f58721"/><stop offset="0.026" stop-color="#f47e21"/><stop offset="0.124" stop-color="#f16323"/><stop offset="0.21" stop-color="#f05224"/><stop offset="0.275" stop-color="#ef4c24"/><stop offset="0.535" stop-color="#db3027"/><stop offset="0.728" stop-color="#cf2028"/><stop offset="1" stop-color="#86191b"/></linearGradient><linearGradient id="b" x1="16.873" y1="5.343" x2="17.924" y2="0.444" gradientUnits="objectBoundingBox"><stop offset="0" stop-color="#8ad0ca"/><stop offset="0.246" stop-color="#00aed2"/><stop offset="0.658" stop-color="#1372b8"/><stop offset="1" stop-color="#1b4899"/></linearGradient><linearGradient id="c" x1="0.5" y1="1.538" x2="0.5" y2="-0.598" xlink:href="#b"/><linearGradient id="d" x1="-0.141" y1="-0.581" x2="0.749" y2="0.855" xlink:href="#b"/></defs><g transform="translate(0.001 198.606)"><g transform="translate(-0.001 -198.606)"><path class="a" d="M23.894,36.336a4.213,4.213,0,0,0-.739-1.2,7.247,7.247,0,0,0-1.238-1.117q-.748-.567-1.753-1.238c-.67-.464-1.1-.773-1.323-.928a3.884,3.884,0,0,1-.55-.5,2,2,0,0,1-.344-.5,1.233,1.233,0,0,1-.1-.5,1.262,1.262,0,0,1,.344-.808,2.219,2.219,0,0,1,1.048-.533,6.041,6.041,0,0,1,1.581-.223c.344,0,.378-.017.7,0-.4-.619-.6-1.083-.945-1.633-.017-.034-.67-1.22-.688-1.255l-.756-.1a6.838,6.838,0,0,0-2.63.567,5.8,5.8,0,0,0-2.492,1.667,5.5,5.5,0,0,0-.567,1.942,3.052,3.052,0,0,0,.206,1.169,3.49,3.49,0,0,0,.584,1.117,8.183,8.183,0,0,0,1.117,1.031c.447.344,1.048.859,1.891,1.444l.859.636c.309.206.533.378.688.5a4.136,4.136,0,0,1,.378.344,2.287,2.287,0,0,1,.241.327.962.962,0,0,1,.138.344,1.113,1.113,0,0,1,.034.344c0,.275-.138.859-1.152.963a4.306,4.306,0,0,1-.756.034L.449,38.244A6.192,6.192,0,0,0,.088,39.6c-.1,1.77,3.077,1.874,3.077,1.874l14.421.017h.223a10.533,10.533,0,0,0,3.369-.344,4.852,4.852,0,0,0,2.252-1.461,3.177,3.177,0,0,0,.739-2.028A3.508,3.508,0,0,0,23.894,36.336Z" transform="translate(-0.071 -21.365)"/><path class="b" d="M25.371,54H17.877c-.344.619-1.977,3.524-1.977,3.524s1.461-.017,2.338,0h9.127Z" transform="translate(-13.167 -44.718)"/><path class="c" d="M19.439,3.506,17.394,0H11.1a2.049,2.049,0,0,0-.773.258,3.579,3.579,0,0,0-1.22,1.306S2.767,12.668.7,16.226c-1.478,2.544-.567,3.833,2.131,3.867,1.117.017,2.252.017,3.4.017-1.581-.55-2.544-1.427-1.616-3.18,1.753-2.991,5.741-9.849,5.741-9.849S12,4.125,12.134,3.9c0,0,.086-.155.223-.4Z" transform="translate(0.001)"/><path class="d" d="M83.969,25.8s0-.052-.412-.086a7.447,7.447,0,0,0-3.386.6,5.08,5.08,0,0,0-2.149,1.53,3.328,3.328,0,0,0-.722,2.028,3.265,3.265,0,0,0,.241,1.2,3.452,3.452,0,0,0,.653,1.1,7.747,7.747,0,0,0,1.152,1.066c.447.344,1.083.859,1.925,1.444,0,0-2.372-3.283.911-5.328a3.029,3.029,0,0,1,1.014-.4,6.77,6.77,0,0,1,1.633-.172c.67,0,.842.017.842.017Z" transform="translate(-64.013 -21.282)"/></g><g transform="translate(30.732 -195.323)"><path class="e" d="M188.305,33.824H178.8V20.4h9.505v2.509h-6.652v2.836h6.5v2.527h-6.5V31.3h6.652Z" transform="translate(-178.8 -20.177)"/><path class="e" d="M250.35,32.988a7.129,7.129,0,0,1-5.1-1.942,6.593,6.593,0,0,1-2.045-5,6.593,6.593,0,0,1,2.045-5,7.129,7.129,0,0,1,5.1-1.942,6.021,6.021,0,0,1,5.6,3.283l-2.458,1.2a3.573,3.573,0,0,0-1.289-1.392,3.4,3.4,0,0,0-1.856-.55,3.969,3.969,0,0,0-3.025,1.255,4.4,4.4,0,0,0-1.186,3.163,4.431,4.431,0,0,0,1.186,3.163,3.99,3.99,0,0,0,3.025,1.238,3.262,3.262,0,0,0,1.856-.55A3.5,3.5,0,0,0,253.5,28.5l2.458,1.186a6.076,6.076,0,0,1-5.6,3.3" transform="translate(-232.131 -19.1)"/><path class="e" d="M338.363,33.824H335.08l-2.63-4.761h-2.1v4.761H327.5V20.4h6.274a4.44,4.44,0,0,1,3.283,1.2,4.209,4.209,0,0,1,1.22,3.111,4.08,4.08,0,0,1-.859,2.681,3.757,3.757,0,0,1-2.08,1.306Zm-5.019-7.288a2.053,2.053,0,0,0,1.444-.5,1.828,1.828,0,0,0,0-2.647,2.135,2.135,0,0,0-1.444-.5h-2.991v3.627h2.991Z" transform="translate(-301.941 -20.177)"/><path class="e" d="M406,32.988a6.841,6.841,0,0,1-5.019-1.959A6.708,6.708,0,0,1,399,26.044a6.735,6.735,0,0,1,1.977-4.985,7.429,7.429,0,0,1,10.055,0,6.682,6.682,0,0,1,1.977,4.985,6.655,6.655,0,0,1-1.977,4.985A6.881,6.881,0,0,1,406,32.988m-2.956-3.781a4.09,4.09,0,0,0,5.9,0,4.518,4.518,0,0,0,1.134-3.163,4.548,4.548,0,0,0-1.134-3.163,3.829,3.829,0,0,0-2.956-1.255,3.712,3.712,0,0,0-2.939,1.255,4.586,4.586,0,0,0-1.117,3.163,4.7,4.7,0,0,0,1.117,3.163" transform="translate(-361.152 -19.1)"/><path class="e" d="M489,30.857l1-1.289a5.567,5.567,0,0,0,4.211,1.925c2.389,0,3.163-1.289,3.163-2.338,0-3.455-7.941-1.53-7.941-6.308,0-2.217,1.977-3.747,4.624-3.747a6.291,6.291,0,0,1,4.744,1.891l-1,1.22a5.044,5.044,0,0,0-3.884-1.616c-1.581,0-2.75.859-2.75,2.131,0,3.008,7.941,1.289,7.941,6.291,0,1.925-1.323,3.936-4.95,3.936a6.543,6.543,0,0,1-5.156-2.1" transform="translate(-435.682 -19.1)"/><path class="e" d="M554.552,54.135a2.267,2.267,0,0,0,.825.155,1.39,1.39,0,0,0,1.444-1.031l.636-1.461L553.4,42h1.65l3.214,7.958L561.513,42h1.633l-4.864,11.688a2.905,2.905,0,0,1-2.853,1.977,5.173,5.173,0,0,1-1.083-.138Z" transform="translate(-489.013 -38.064)"/><path class="e" d="M614.4,49.263l.756-1.083a4.415,4.415,0,0,0,3.2,1.392c1.5,0,2.32-.7,2.32-1.667,0-2.355-6.016-.911-6.016-4.5,0-1.53,1.289-2.8,3.592-2.8a4.794,4.794,0,0,1,3.592,1.409l-.7,1.048a3.748,3.748,0,0,0-2.888-1.22c-1.324,0-2.149.67-2.149,1.53,0,2.114,6.016.722,6.016,4.5,0,1.633-1.306,2.939-3.8,2.939a5.335,5.335,0,0,1-3.919-1.547" transform="translate(-539.529 -36.905)"/><path class="e" d="M667.616,36.83V30.47H666V29.164h1.6V26.5h1.53v2.664H671.1v1.323h-1.977v6.033c0,.722.327,1.255.962,1.255a1.438,1.438,0,0,0,1.031-.43l.447,1.152a2.446,2.446,0,0,1-1.787.619,2,2,0,0,1-2.166-2.286" transform="translate(-582.259 -25.228)"/><path class="e" d="M704.8,45.688a4.853,4.853,0,0,1,4.778-5.088c2.939,0,4.658,2.286,4.658,5.208v.378H706.4a3.4,3.4,0,0,0,3.472,3.352,4.223,4.223,0,0,0,3.008-1.238l.722.98a5.355,5.355,0,0,1-3.867,1.513,4.812,4.812,0,0,1-4.933-5.1m4.761-3.85a3.25,3.25,0,0,0-3.18,3.214h6.377a3.136,3.136,0,0,0-3.2-3.214" transform="translate(-614.391 -36.905)"/><path class="e" d="M785.622,50.552v-6.6c0-1.22-.516-2.011-1.788-2.011a3.345,3.345,0,0,0-2.578,1.5v7.116h-1.5v-6.6c0-1.22-.5-2.011-1.788-2.011a3.418,3.418,0,0,0-2.561,1.513v7.1H773.9V40.841h1.513V42.25a4.263,4.263,0,0,1,3.163-1.65,2.492,2.492,0,0,1,2.6,1.8,4.123,4.123,0,0,1,3.249-1.8c1.77,0,2.716.98,2.716,2.939v7.013Z" transform="translate(-671.614 -36.905)"/></g></g></svg>