<svg xmlns="http://www.w3.org/2000/svg" width="41.464" height="40.127" viewBox="0 0 41.464 40.127"><defs><style>.a,.b{fill:#fff;}.b{opacity:0.5;}</style></defs><g transform="translate(0 -7.8)"><g transform="translate(0 7.8)"><path class="a" d="M10.559,134H1.346A1.342,1.342,0,0,0,0,135.346v26.62a1.342,1.342,0,0,0,1.346,1.346h9.213a1.342,1.342,0,0,0,1.346-1.346v-26.62A1.337,1.337,0,0,0,10.559,134ZM9.213,160.62H2.691V136.691H9.213Z" transform="translate(0 -123.184)"/><path class="b" d="M355.459,216.4h-9.213a1.342,1.342,0,0,0-1.346,1.346V237.3a1.342,1.342,0,0,0,1.346,1.346h9.213A1.342,1.342,0,0,0,356.8,237.3V217.746A1.342,1.342,0,0,0,355.459,216.4Zm-7.868,2.691h2.091l-2.091,2.091Zm0,4.234,4.225-4.225h2.134l-6.359,6.359v-2.134Zm6.522,12.633h-2.1l2.1-2.1Zm0-4.234-4.234,4.234h-2.134L354.1,229.6v2.125Zm0-4.26-6.522,6.522v-2.134l6.522-6.522Zm0-4.268-6.522,6.522v-2.134l6.522-6.522Z" transform="translate(-315.341 -198.522)"/><path class="a" d="M182.967,7.8h-9.222A1.342,1.342,0,0,0,172.4,9.146V46.581a1.342,1.342,0,0,0,1.346,1.346h9.213a1.342,1.342,0,0,0,1.346-1.346V9.146A1.33,1.33,0,0,0,182.967,7.8Z" transform="translate(-157.625 -7.8)"/></g></g></svg>