<svg xmlns="http://www.w3.org/2000/svg" width="40" height="40" viewBox="0 0 40 40"><defs><style>.a{fill:#fff;}</style></defs><path class="a" d="M40,12.728V1.818A1.818,1.818,0,0,0,38.181,0H27.273a1.818,1.818,0,0,0-1.819,1.818V6.363A19.107,19.107,0,0,0,6.988,20.7L5.1,20.363a.91.91,0,0,0-.969,1.307L6.1,25.559a7.268,7.268,0,1,0,8.385,8.077h6.426v1.818a.909.909,0,0,0,1.456.727L25.543,33.8a7.268,7.268,0,1,0,8.092-8.278V19.091h1.82a.909.909,0,0,0,.727-1.454l-2.319-3.09h4.317A1.821,1.821,0,0,0,40,12.728ZM7.273,36.363a3.636,3.636,0,1,1,3.636-3.635A3.64,3.64,0,0,1,7.273,36.363Zm29.092-3.636a3.636,3.636,0,1,1-3.637-3.637A3.641,3.641,0,0,1,36.365,32.728Zm-7.178-14.14a.91.91,0,0,0,.813.5h1.819v6.426a7.279,7.279,0,0,0-6.275,6.14l-3.18-2.386A.909.909,0,0,0,20.91,30v1.818H14.483a7.279,7.279,0,0,0-6.313-6.3.446.446,0,0,0,.013-.06v-.009l2.751-2.576a.909.909,0,0,0-.464-1.559l-1.688-.3A17.288,17.288,0,0,1,25.455,8.181v4.546a1.818,1.818,0,0,0,1.819,1.818h4.317l-2.318,3.091A.906.906,0,0,0,29.187,18.588Zm7.178-7.679H29.091V3.637h7.274Z"/></svg>