<svg xmlns="http://www.w3.org/2000/svg" width="171.781" height="57.46" viewBox="0 0 171.781 57.46"><defs><style>.a{opacity:0.7;}.b,.c{fill:#fff;}.b{font-size:41px;font-family:adineuePROCyr-BoldWeb, adineue PRO Cyr;font-weight:700;}</style></defs><g class="a"><text class="b" transform="translate(76.781 40.871)"><tspan x="0" y="0">2ab2</tspan></text><path class="c" d="M89.4,6.1l2.424,4.2H68.052l9.48,16.413h30.831l-3.528-6.1H81.059l-2.424-4.2h23.775l-3.528-6.1h0L93.054.245,92.931,0H62.1l3.528,6.1Z" transform="translate(-43.049)"/><path class="c" d="M84.087,100.431H77l-7.516,13.007h0l-3.528,6.1h0L61.6,127.059h7.056l4.356-7.516h16.75l-4.356,7.516h7.056l15.37-26.659H84.087Zm9.2,13.007H76.571l3.988-6.9h16.72Z" transform="translate(-42.702 -69.599)"/><path class="c" d="M21.935,43.719l2.853-.153,6.136-10.615-3.589-6.136h0L18.959,12.274h0L15.462,6.2,0,33.043l3.436,5.982h0l8.436,14.6,3.528,6.1,6.9-11.964ZM15.4,47.554,7.056,33.013,9.449,28.84l8.375,14.511ZM12.977,22.735l2.485-4.295,8.375,14.48-2.516,4.356Z" transform="translate(0 -4.298)"/></g></svg>