<svg xmlns="http://www.w3.org/2000/svg" xmlns:xlink="http://www.w3.org/1999/xlink" width="835" height="293" viewBox="0 0 835 293"><defs><style>.a{fill:#fff;}.b{opacity:0.05;clip-path:url(#a);}</style><clipPath id="a"><rect class="a" width="835" height="293" transform="translate(0.039 -0.021)"/></clipPath></defs><g class="b" transform="translate(-0.039 0.021)"><path class="a" d="M304.7,93.546a124.379,124.379,0,0,1-42.507,91.074c-29.018,25.646-63.353,36.147-101.974,33.118-13.283-1.009-25.953-4.241-37.6-10.9-22.888-12.722-34.74-32.916-35.967-58.158-2.452-48.869,13.9-90.064,55.585-118.74,30.654-21.2,65.19-28.473,101.973-20.6C283.654,17.819,305.108,45.687,304.7,93.546Zm-143.459,72.7a31.346,31.346,0,0,0,1.022,9.693c2.248,7.875,6.948,11.308,15.327,10.5,5.722-.4,9.81-3.635,13.485-7.27,7.158-7.27,11.854-15.953,15.737-25.242C217.439,129.49,223.57,104.046,227.659,78c1.427-9.491,3.269-18.982,1.021-28.675-2.041-8.885-8.992-12.924-17.985-10.3a24.451,24.451,0,0,0-10.42,6.462,66.325,66.325,0,0,0-11.447,15.751c-9.4,17.569-15.12,36.551-19.82,55.937C165.329,133.328,162.264,149.685,161.242,166.243Z" transform="translate(530.258 38.344)"/><path class="a" d="M160.657,154.991c2.247,6.26,4.5,11.914,6.539,17.367.613,1.817,1.021,3.433-.818,5.251C140.834,202.649,111.2,218.6,74.418,218.4c-32.7-.2-59.877-19.79-70.3-49.676-5.518-15.146-4.9-30.9-1.635-46.244,11.444-54.523,44.55-90.872,97.683-109.248,21.457-7.472,43.528-9.693,66.007-3.029,23.5,7.068,36.58,25.848,33.719,48.465a65.283,65.283,0,0,1-18.188,37.762c-14.3,14.944-32.288,23.021-52.316,27.262-14.3,3.029-28.814,3.231-43.324,3.029-3.065,0-4.291,1.01-4.9,3.837a81.69,81.69,0,0,0-2.861,28.07C79.322,169.732,86.679,177,97.715,178.82c18.187,3.03,33.514-3.433,48.228-13.328C150.847,162.059,155.547,158.626,160.657,154.991ZM91.175,97.237a19.8,19.8,0,0,0,3.474,0c18.8-2.827,34.127-11.51,45.163-26.656,4.5-6.058,7.97-12.722,8.174-20.6.2-8.481-5.926-13.328-14.3-11.107-4.9,1.212-8.992,4.039-12.67,7.472C106.093,60.282,97.306,77.851,91.175,97.237Z" transform="translate(-0.077 38.287)"/><path class="a" d="M188.258,148.3c3.065,5.654,5.926,11.511,9.2,17.165,1.226,2.424,1.226,4.039-.409,6.058-16.553,23.021-39.033,37.358-66.825,43.619-18.6,4.241-37.193,4.847-55.381-1.818C49.09,203.835,33.151,185.055,30.7,158.4,25.59,100.442,51.543,57.228,99.567,25.927c21.253-13.934,45.163-20.4,70.708-19.588,14.51.4,28.406,3.433,39.646,13.732,22.684,20.8,16.553,64.014-10.627,76.534a36.639,36.639,0,0,1-15.327,3.231c-15.531-.4-25.136-12.318-22.275-27.463,1.43-7.472,4.291-14.742,6.539-22.011,1.634-5.654-.409-8.279-6.539-8.077-6.335.2-11.036,3.837-15.531,7.673-9.4,8.683-16.145,19.184-21.866,30.493-10.627,21-17.575,42.811-16.757,66.438.817,22.213,15.531,33.32,37.6,28.675,15.735-3.231,28.2-11.914,39.032-23.425,1.227-1.211,2.248-2.423,3.27-3.635A2.054,2.054,0,0,0,188.258,148.3Z" transform="translate(184.445 38.514)"/><path class="a" d="M158.136,74.387c3.065-5.251,5.926-10.1,8.788-14.943,10.014-16.156,20.844-31.7,36.171-43.619,7.97-6.26,16.758-11.107,27.589-9.087,14.305,2.827,22.275,12.318,25.34,25.646,4.087,17.367.818,33.724-10.831,47.86-6.131,7.472-14.1,12.116-24.319,11.914a18.8,18.8,0,0,1-16.552-8.885c-1.431-2.221-2.657-4.443-4.292-6.664-3.474-5.049-6.948-5.654-12.057-2.222-4.9,3.433-8.379,8.279-11.649,13.126-10.422,15.953-17.165,33.522-22.479,51.7-6.744,23.223-13.284,46.648-20.027,69.871-.613,1.818-1.022,3.03-3.474,3.03H58.615c2.86-11.309,5.926-22.213,8.583-33.118,5.926-24.03,13.079-47.657,18.392-71.89a113.017,113.017,0,0,0,2.861-28.676c-.409-9.9-4.291-17.973-13.079-23.222-1.635-1.01-3.27-2.02-4.9-3.232a12.79,12.79,0,0,1-5.926-11.712c.2-5.049-1.431-11.107,1.226-14.742s9.2-2.019,13.9-2.827c24.728-3.433,49.25-8.077,73.16-15.549,3.678-1.01,4.087-.2,4.087,3.029-.2,19.386,0,38.772,0,58.159C157.114,70.55,156.705,72.368,158.136,74.387Z" transform="translate(359.66 38.52)"/></g></svg>