<?xml version="1.0" encoding="utf-8"?>
<!-- Generator: Adobe Illustrator 23.1.1, SVG Export Plug-In . SVG Version: 6.00 Build 0)  -->
<svg version="1.1" id="Слой_1" xmlns="http://www.w3.org/2000/svg" xmlns:xlink="http://www.w3.org/1999/xlink" x="0px" y="0px"
	 viewBox="0 0 582 187.4" style="enable-background:new 0 0 582 187.4;" xml:space="preserve">
<style type="text/css">
	.st0{fill:#fff;opacity:0.7;}
</style>
<g>
	<path class="st0" d="M256.1,138.1v-17.7l34.2-27.3c2-1.6,3.9-3.1,5.6-4.5c1.7-1.4,3.1-2.9,4.2-4.5s2-3.2,2.6-5
		c0.6-1.8,0.9-3.8,0.9-6.1c0-4-1.3-7.2-3.9-9.5c-2.6-2.3-6.1-3.5-10.5-3.5c-4.9,0-8.9,1.2-11.9,3.5c-3,2.3-5.5,5.2-7.7,8.6l-16.6-10
		c1.9-3,4-5.7,6.3-8.3c2.4-2.6,5-4.8,8-6.6c3-1.9,6.3-3.3,10-4.4c3.7-1.1,7.7-1.6,12.1-1.6c5.3,0,10.1,0.8,14.4,2.4
		c4.3,1.6,7.9,3.8,10.8,6.6c2.9,2.8,5.2,6,6.8,9.8c1.6,3.7,2.4,7.7,2.4,12c0,3.9-0.5,7.4-1.4,10.6c-0.9,3.2-2.3,6.1-4.1,8.9
		c-1.8,2.8-4.1,5.5-6.8,8.2c-2.7,2.6-5.9,5.4-9.6,8.3l-16.5,12.5h38.5v17.7H256.1z"/>
	<path class="st0" d="M393.5,121.6H356l-5.4,16.5h-22.2l33.7-95.5h26.5l33.6,95.5h-23.3L393.5,121.6z M374.6,65.2l-12.4,37.4h24.8
		L374.6,65.2z"/>
	<path class="st0" d="M428.9,42.6h39.3c5.3,0,9.9,0.7,13.8,2.1c3.9,1.4,7.1,3.3,9.6,5.6c2.5,2.4,4.4,5.1,5.6,8.2
		c1.2,3.1,1.8,6.4,1.8,10c0,4.3-1,8.1-3,11.4c-2,3.3-5,6-9,8c6,1.9,10.6,4.7,13.7,8.6c3.1,3.9,4.7,8.6,4.7,14.2
		c0,3.9-0.7,7.5-2.1,10.9c-1.4,3.3-3.5,6.2-6.3,8.6c-2.8,2.4-6.3,4.3-10.5,5.7c-4.2,1.4-9.1,2.1-14.8,2.1h-42.9V42.6z M450.5,61.1
		v19.5h16.2c3.7,0,6.5-0.9,8.4-2.8c1.9-1.9,2.8-4.2,2.8-7.1c0-2.8-0.9-5.1-2.8-6.9c-1.9-1.8-4.6-2.7-8.4-2.7H450.5z M450.5,98.9
		v20.6h20.2c4.2,0,7.4-0.9,9.7-2.8c2.3-1.9,3.4-4.3,3.4-7.2c0-3.2-1.1-5.7-3.4-7.7c-2.3-2-5.6-2.9-9.8-2.9H450.5z"/>
	<path class="st0" d="M514.2,138.1v-17.7l34.2-27.3c2-1.6,3.9-3.1,5.6-4.5c1.7-1.4,3.1-2.9,4.2-4.5s2-3.2,2.6-5
		c0.6-1.8,0.9-3.8,0.9-6.1c0-4-1.3-7.2-3.9-9.5c-2.6-2.3-6.1-3.5-10.5-3.5c-4.9,0-8.9,1.2-11.9,3.5c-3,2.3-5.5,5.2-7.7,8.6l-16.6-10
		c1.9-3,4-5.7,6.3-8.3c2.4-2.6,5-4.8,8-6.6c3-1.9,6.3-3.3,10-4.4c3.7-1.1,7.7-1.6,12.1-1.6c5.3,0,10.1,0.8,14.4,2.4
		c4.3,1.6,7.9,3.8,10.8,6.6s5.2,6,6.8,9.8c1.6,3.7,2.4,7.7,2.4,12c0,3.9-0.5,7.4-1.4,10.6c-0.9,3.2-2.3,6.1-4.1,8.9
		c-1.8,2.8-4.1,5.5-6.8,8.2c-2.7,2.6-5.9,5.4-9.6,8.3l-16.5,12.5H582v17.7H514.2z"/>
</g>
<g>
	<polygon class="st0" points="151.1,19.9 159,33.6 104.5,33.6 81.5,33.6 81.5,33.6 112.4,87.1 112.4,87.1 112.4,87.1 212.9,87.1 
		201.4,67.2 123.9,67.2 116,53.5 170.5,53.5 193.5,53.5 182,33.6 182,33.6 163,0.8 162.6,0 162.6,0 139.6,0 62.1,0 73.6,19.9 	"/>
	<path class="st0" d="M134.9,100.5h-23h-0.1l-24.5,42.4h0l-11.5,19.9h0l-14.2,24.5h23l14.2-24.5h54.6l-14.2,24.5h23l50.1-86.9h-23
		H134.9z M164.9,142.9h-54.5l13-22.5h54.5L164.9,142.9z"/>
	<path class="st0" d="M71.5,128.5l9.3-0.5l20-34.6L89.1,73.4l0,0L61.8,26l0,0L50.4,6.2L0,93.7l11.2,19.5l0,0l27.5,47.6l11.5,19.9
		l22.5-39L71.5,128.5z M50.2,141L23,93.6L30.8,80l27.3,47.3L50.2,141z M42.3,60.1l8.1-14l27.3,47.2l-8.2,14.2L42.3,60.1z"/>
</g>
</svg>