<svg xmlns="http://www.w3.org/2000/svg" xmlns:xlink="http://www.w3.org/1999/xlink" width="117" height="41" viewBox="0 0 117 41"><defs><style>.a{fill:#fff;}.b{opacity:0.7;clip-path:url(#a);}</style><clipPath id="a"><rect class="a" width="117" height="41"/></clipPath></defs><g class="b"><path class="a" d="M117,18.477a17.428,17.428,0,0,1-5.956,12.761,18.55,18.55,0,0,1-14.288,4.64,12.318,12.318,0,0,1-5.269-1.528,9.39,9.39,0,0,1-5.04-8.149c-.344-6.847,1.947-12.62,7.789-16.638a17.791,17.791,0,0,1,14.288-2.886C114.051,7.866,117.057,11.771,117,18.477ZM96.9,28.663a4.392,4.392,0,0,0,.143,1.358,1.8,1.8,0,0,0,2.148,1.471,2.973,2.973,0,0,0,1.89-1.019,10.84,10.84,0,0,0,2.2-3.537A43.193,43.193,0,0,0,106.205,16.3a10.545,10.545,0,0,0,.143-4.018,1.845,1.845,0,0,0-2.52-1.443,3.426,3.426,0,0,0-1.46.906,9.293,9.293,0,0,0-1.6,2.207,32.8,32.8,0,0,0-2.777,7.838A42.98,42.98,0,0,0,96.9,28.663Z"/><path class="a" d="M22.507,27.079c.315.877.63,1.669.916,2.433a.607.607,0,0,1-.115.736c-3.579,3.509-7.731,5.744-12.885,5.716A10.3,10.3,0,0,1,.573,29a11.61,11.61,0,0,1-.229-6.48c1.6-7.64,6.242-12.733,13.687-15.308a14.766,14.766,0,0,1,9.249-.424c3.293.99,5.126,3.622,4.725,6.791a9.147,9.147,0,0,1-2.549,5.291,13.712,13.712,0,0,1-7.33,3.82,27.3,27.3,0,0,1-6.07.424c-.43,0-.6.142-.687.538a11.446,11.446,0,0,0-.4,3.933,3.042,3.042,0,0,0,2.72,2.83,9.089,9.089,0,0,0,6.758-1.868C21.132,28.069,21.791,27.588,22.507,27.079Zm-9.736-8.092a2.775,2.775,0,0,0,.487,0,9.207,9.207,0,0,0,6.328-3.735,5.045,5.045,0,0,0,1.145-2.886,1.477,1.477,0,0,0-2-1.556,4.052,4.052,0,0,0-1.775,1.047A15.993,15.993,0,0,0,12.771,18.986Z"/><path class="a" d="M52.229,26.173c.43.792.83,1.613,1.289,2.405a.673.673,0,0,1-.057.849A15.27,15.27,0,0,1,44.1,35.539a13.428,13.428,0,0,1-7.76-.255,8.78,8.78,0,0,1-6.185-7.7c-.716-8.121,2.921-14.176,9.65-18.562a16.781,16.781,0,0,1,9.908-2.745,8.164,8.164,0,0,1,5.555,1.924c3.178,2.914,2.319,8.97-1.489,10.724a5.134,5.134,0,0,1-2.148.453,3.1,3.1,0,0,1-3.121-3.848,29.279,29.279,0,0,1,.916-3.084c.229-.792-.057-1.16-.916-1.132a3.548,3.548,0,0,0-2.176,1.075,14.668,14.668,0,0,0-3.064,4.273,18.987,18.987,0,0,0-2.348,9.309c.115,3.112,2.176,4.669,5.269,4.018a10.31,10.31,0,0,0,5.469-3.282c.172-.17.315-.34.458-.509A.288.288,0,0,0,52.229,26.173Z"/><path class="a" d="M72.56,15.817c.429-.736.83-1.415,1.231-2.094a22.244,22.244,0,0,1,5.068-6.112,4.729,4.729,0,0,1,3.866-1.273,4.352,4.352,0,0,1,3.551,3.594,7.424,7.424,0,0,1-1.518,6.706,4.17,4.17,0,0,1-3.408,1.669,2.634,2.634,0,0,1-2.319-1.245c-.2-.311-.372-.622-.6-.934a1.04,1.04,0,0,0-1.689-.311,6.714,6.714,0,0,0-1.632,1.839,26.79,26.79,0,0,0-3.15,7.244c-.945,3.254-1.861,6.536-2.806,9.79-.086.255-.143.424-.487.424H58.615c.4-1.585.83-3.112,1.2-4.641.83-3.367,1.833-6.678,2.577-10.073a15.836,15.836,0,0,0,.4-4.018,3.715,3.715,0,0,0-1.833-3.254c-.229-.141-.458-.283-.687-.453a1.792,1.792,0,0,1-.83-1.641c.029-.707-.2-1.556.172-2.066s1.289-.283,1.947-.4A63.518,63.518,0,0,0,71.815,6.395c.515-.141.573-.028.573.424-.029,2.716,0,5.433,0,8.149A1.468,1.468,0,0,0,72.56,15.817Z"/></g></svg>