<svg xmlns="http://www.w3.org/2000/svg" width="41.795" height="41.795" viewBox="0 0 41.795 41.795"><defs><style>.a{fill:#fff;stroke:#fff;}.b{opacity:0.5;}</style></defs><g transform="translate(0.5 0.5)"><g transform="translate(6.799 6.799)"><path class="a" d="M113.316,80H97a.68.68,0,0,0-.68.68V86.8a.68.68,0,0,0,.895.645l.855-.285a1.768,1.768,0,1,1,0,3.36l-.855-.285a.68.68,0,0,0-.895.645v5.439H90.879a.68.68,0,0,0-.645.895l.285.855a1.768,1.768,0,1,1-3.36,0l.285-.855a.68.68,0,0,0-.645-.895H80.68A.68.68,0,0,0,80,97v16.318a.68.68,0,0,0,.68.68h32.636a.68.68,0,0,0,.68-.68V80.68A.68.68,0,0,0,113.316,80ZM96.353,106.982a.68.68,0,0,0-.035.214v5.439H81.36V97.678h4.5a3.128,3.128,0,1,0,5.966,0h4.5v5.439a.68.68,0,0,0,.895.645l.855-.285a1.768,1.768,0,1,1,0,3.36l-.855-.285A.68.68,0,0,0,96.353,106.982Zm16.283,5.654H97.678v-4.5a3.128,3.128,0,1,0,0-5.966v-4.5h5.439a.68.68,0,0,0,.645-.895l-.285-.855a1.768,1.768,0,1,1,3.36,0l-.285.855a.68.68,0,0,0,.645.895h5.439v14.958Zm0-16.318h-4.5a3.128,3.128,0,1,0-5.966,0h-4.5v-4.5a3.134,3.134,0,1,0,0-5.966v-4.5h14.958Z" transform="translate(-80 -80)"/></g><g class="b"><path class="a" d="M19.559,5.856a3.128,3.128,0,0,0-1.881,0V.68A.68.68,0,0,0,17,0H.68A.68.68,0,0,0,0,.68V17a.68.68,0,0,0,.68.68H5.856a3.128,3.128,0,1,0,5.966,0H17a.68.68,0,0,0,.68-.68V11.822a3.128,3.128,0,0,0,1.881-5.966Zm-.392,4.663a1.768,1.768,0,0,1-1.1,0l-.855-.285a.68.68,0,0,0-.895.645v5.439H10.879a.68.68,0,0,0-.645.895l.285.855a1.768,1.768,0,1,1-3.36,0l.285-.855a.68.68,0,0,0-.645-.895H1.36V1.36H16.318V6.8a.68.68,0,0,0,.895.645l.855-.285a1.768,1.768,0,0,1,1.1,3.36Z"/></g></g></svg>